<svg width="21" height="20" viewBox="0 0 21 20" fill="none" xmlns="http://www.w3.org/2000/svg">
<g id="uiw:information" clip-path="url(#clip0_470_970)">
<path id="Vector" d="M10.5 0C16.023 0 20.5 4.477 20.5 10C20.5 15.523 16.023 20 10.5 20C4.977 20 0.5 15.523 0.5 10C0.5 4.477 4.977 0 10.5 0ZM10.355 7.21C10.1701 7.21 9.99266 7.2834 9.86179 7.41409C9.73092 7.54477 9.65726 7.72205 9.657 7.907V15.465C9.66383 15.6454 9.74031 15.8162 9.87037 15.9414C10.0004 16.0666 10.174 16.1366 10.3545 16.1366C10.535 16.1366 10.7086 16.0666 10.8386 15.9414C10.9687 15.8162 11.0452 15.6454 11.052 15.465V7.907C11.052 7.72205 10.9786 7.54466 10.8479 7.41379C10.7172 7.28292 10.5399 7.21027 10.355 7.21ZM10.383 4.418C10.1363 4.418 9.8998 4.51598 9.72539 4.69039C9.55098 4.8648 9.453 5.10135 9.453 5.348C9.453 5.59465 9.55098 5.8312 9.72539 6.00561C9.8998 6.18002 10.1363 6.278 10.383 6.278C10.6297 6.278 10.8662 6.18002 11.0406 6.00561C11.215 5.8312 11.313 5.59465 11.313 5.348C11.313 5.10135 11.215 4.8648 11.0406 4.69039C10.8662 4.51598 10.6297 4.418 10.383 4.418Z" fill="#7D7D7D"/>
</g>
<defs>
<clipPath id="clip0_470_970">
<rect width="20" height="20" fill="white" transform="translate(0.5)"/>
</clipPath>
</defs>
</svg>
