<svg width="28" height="28" viewBox="0 0 28 28" fill="none" xmlns="http://www.w3.org/2000/svg">
<g id="ci:shopping-cart-02">
<path id="Vector" d="M3.5 3.5H3.81267C4.36567 3.5 4.64217 3.5 4.8685 3.59917C5.06683 3.68783 5.23717 3.829 5.3585 4.00867C5.4985 4.21167 5.54867 4.4835 5.64783 5.02483L8.16667 18.6667H20.3257C20.8542 18.6667 21.119 18.6667 21.3383 18.5733C21.5316 18.4907 21.6989 18.3572 21.8225 18.1872C21.9625 17.9947 22.022 17.738 22.141 17.2235V17.22L23.9727 9.28667C24.1523 8.50617 24.2433 8.11417 24.1442 7.80733C24.0564 7.53832 23.874 7.3103 23.6308 7.16567C23.3555 7 22.9553 7 22.155 7H6.41667M21 24.5C20.6906 24.5 20.3938 24.3771 20.175 24.1583C19.9562 23.9395 19.8333 23.6428 19.8333 23.3333C19.8333 23.0239 19.9562 22.7272 20.175 22.5084C20.3938 22.2896 20.6906 22.1667 21 22.1667C21.3094 22.1667 21.6062 22.2896 21.825 22.5084C22.0438 22.7272 22.1667 23.0239 22.1667 23.3333C22.1667 23.6428 22.0438 23.9395 21.825 24.1583C21.6062 24.3771 21.3094 24.5 21 24.5ZM9.33333 24.5C9.02391 24.5 8.72717 24.3771 8.50838 24.1583C8.28958 23.9395 8.16667 23.6428 8.16667 23.3333C8.16667 23.0239 8.28958 22.7272 8.50838 22.5084C8.72717 22.2896 9.02391 22.1667 9.33333 22.1667C9.64275 22.1667 9.9395 22.2896 10.1583 22.5084C10.3771 22.7272 10.5 23.0239 10.5 23.3333C10.5 23.6428 10.3771 23.9395 10.1583 24.1583C9.9395 24.3771 9.64275 24.5 9.33333 24.5Z" stroke="#9381FF" stroke-width="2.5" stroke-linecap="round" stroke-linejoin="round"/>
</g>
</svg>
