<svg width="26" height="22" viewBox="0 0 26 22" fill="none" xmlns="http://www.w3.org/2000/svg">
<g id="Group">
<path id="Vector" d="M5.125 1.375H20.875C21.8033 1.375 22.6935 1.74375 23.3499 2.40013C24.0063 3.0565 24.375 3.94674 24.375 4.875V13.625C24.375 14.5533 24.0063 15.4435 23.3499 16.0999C22.6935 16.7563 21.8033 17.125 20.875 17.125H11.25L6 20.625V17.125H5.125C4.19674 17.125 3.3065 16.7563 2.65013 16.0999C1.99375 15.4435 1.625 14.5533 1.625 13.625V4.875C1.625 3.94674 1.99375 3.0565 2.65013 2.40013C3.3065 1.74375 4.19674 1.375 5.125 1.375Z" stroke="#9381FF" stroke-width="2" stroke-linecap="round" stroke-linejoin="round"/>
<path id="Vector_2" d="M17.5 9.875C17.5 10.1071 17.5922 10.3296 17.7563 10.4937C17.9204 10.6578 18.1429 10.75 18.375 10.75C18.6071 10.75 18.8296 10.6578 18.9937 10.4937C19.1578 10.3296 19.25 10.1071 19.25 9.875C19.25 9.64294 19.1578 9.42038 18.9937 9.25628C18.8296 9.09219 18.6071 9 18.375 9C18.1429 9 17.9204 9.09219 17.7563 9.25628C17.5922 9.42038 17.5 9.64294 17.5 9.875ZM12.25 9.875C12.25 10.1071 12.3422 10.3296 12.5063 10.4937C12.6704 10.6578 12.8929 10.75 13.125 10.75C13.3571 10.75 13.5796 10.6578 13.7437 10.4937C13.9078 10.3296 14 10.1071 14 9.875C14 9.64294 13.9078 9.42038 13.7437 9.25628C13.5796 9.09219 13.3571 9 13.125 9C12.8929 9 12.6704 9.09219 12.5063 9.25628C12.3422 9.42038 12.25 9.64294 12.25 9.875ZM7 9.875C7 10.1071 7.09219 10.3296 7.25628 10.4937C7.42038 10.6578 7.64294 10.75 7.875 10.75C8.10706 10.75 8.32962 10.6578 8.49372 10.4937C8.65781 10.3296 8.75 10.1071 8.75 9.875C8.75 9.64294 8.65781 9.42038 8.49372 9.25628C8.32962 9.09219 8.10706 9 7.875 9C7.64294 9 7.42038 9.09219 7.25628 9.25628C7.09219 9.42038 7 9.64294 7 9.875Z" stroke="#9381FF" stroke-width="2" stroke-linecap="round" stroke-linejoin="round"/>
</g>
</svg>
