<svg width="52" height="52" viewBox="0 0 52 52" fill="none" xmlns="http://www.w3.org/2000/svg">
<g id="Vector" filter="url(#filter0_d_485_1509)">
<path fill-rule="evenodd" clip-rule="evenodd" d="M37.8134 2.02838C37.3367 1.26673 36.6344 0.672648 35.8043 0.328826C34.9742 -0.0149948 34.0575 -0.0914488 33.1819 0.110109L26.9674 1.53758C26.3305 1.68396 25.6687 1.68396 25.0318 1.53758L18.8173 0.110109C17.9417 -0.0914488 17.0251 -0.0149948 16.1949 0.328826C15.3648 0.672648 14.6625 1.26673 14.1859 2.02838L10.7986 7.43408C10.453 7.9871 9.9864 8.4537 9.43339 8.80279L4.02768 12.19C3.26735 12.6663 2.67414 13.3674 2.33039 14.1961C1.98664 15.0248 1.90941 15.94 2.10941 16.8146L3.53688 23.036C3.68273 23.6718 3.68273 24.3323 3.53688 24.9681L2.10941 31.186C1.90863 32.0611 1.98548 32.977 2.32926 33.8065C2.67305 34.6359 3.26669 35.3376 4.02768 35.8141L9.43339 39.2013C9.9864 39.5469 10.453 40.0135 10.8021 40.5665L14.1893 45.9722C15.164 47.531 17.0235 48.3018 18.8173 47.8905L25.0318 46.463C25.6687 46.3166 26.3305 46.3166 26.9674 46.463L33.1853 47.8905C34.0604 48.0913 34.9764 48.0144 35.8058 47.6706C36.6352 47.3269 37.3369 46.7332 37.8134 45.9722L41.2006 40.5665C41.5462 40.0135 42.0128 39.5469 42.5658 39.2013L47.975 35.8141C48.736 35.3369 49.3294 34.6344 49.6726 33.8043C50.0158 32.9742 50.0917 32.0578 49.8898 31.1826L48.4658 24.9681C48.3194 24.3312 48.3194 23.6694 48.4658 23.0325L49.8933 16.8146C50.0944 15.9398 50.018 15.0242 49.6749 14.1948C49.3317 13.3654 48.7388 12.6635 47.9784 12.1865L42.5693 8.79934C42.017 8.45307 41.5503 7.98633 41.204 7.43408L37.8134 2.02838ZM36.0748 16.2927C36.2886 15.8996 36.3416 15.4389 36.2226 15.0075C36.1036 14.5761 35.8219 14.2078 35.4369 13.9798C35.0518 13.7519 34.5933 13.6823 34.1579 13.7855C33.7225 13.8888 33.3441 14.1568 33.1024 14.5334L24.0641 29.8311L18.6065 24.6052C18.4446 24.4389 18.2509 24.307 18.0369 24.2172C17.8229 24.1275 17.593 24.0817 17.3609 24.0828C17.1289 24.0838 16.8994 24.1315 16.6862 24.2231C16.473 24.3147 16.2804 24.4484 16.12 24.616C15.9595 24.7837 15.8345 24.9819 15.7523 25.1989C15.6701 25.4159 15.6325 25.6473 15.6416 25.8792C15.6508 26.111 15.7066 26.3387 15.8056 26.5486C15.9047 26.7584 16.045 26.9462 16.2182 27.1006L23.2484 33.837C23.4365 34.0169 23.6629 34.152 23.9106 34.2322C24.1583 34.3123 24.4209 34.3355 24.6787 34.2999C24.9366 34.2644 25.1832 34.171 25.3999 34.0268C25.6167 33.8826 25.798 33.6913 25.9305 33.4672L36.0748 16.2927Z" fill="#6A48D9"/>
</g>
<defs>
<filter id="filter0_d_485_1509" x="0" y="0" width="52.0029" height="52" filterUnits="userSpaceOnUse" color-interpolation-filters="sRGB">
<feFlood flood-opacity="0" result="BackgroundImageFix"/>
<feColorMatrix in="SourceAlpha" type="matrix" values="0 0 0 0 0 0 0 0 0 0 0 0 0 0 0 0 0 0 127 0" result="hardAlpha"/>
<feOffset dy="2"/>
<feGaussianBlur stdDeviation="1"/>
<feComposite in2="hardAlpha" operator="out"/>
<feColorMatrix type="matrix" values="0 0 0 0 0 0 0 0 0 0 0 0 0 0 0 0 0 0 0.2 0"/>
<feBlend mode="normal" in2="BackgroundImageFix" result="effect1_dropShadow_485_1509"/>
<feBlend mode="normal" in="SourceGraphic" in2="effect1_dropShadow_485_1509" result="shape"/>
</filter>
</defs>
</svg>
