<svg width="21" height="20" viewBox="0 0 21 20" fill="none" xmlns="http://www.w3.org/2000/svg">
<g id="Group 54">
<path id="Vector" fill-rule="evenodd" clip-rule="evenodd" d="M14.6253 10C14.6253 9.80108 14.5463 9.61032 14.4056 9.46967C14.265 9.32902 14.0742 9.25 13.8753 9.25H2.90231L4.86331 7.57C4.93817 7.50591 4.99967 7.42771 5.0443 7.33986C5.08893 7.25201 5.11582 7.15622 5.12343 7.05798C5.13105 6.95973 5.11924 6.86095 5.08868 6.76727C5.05811 6.67359 5.0094 6.58685 4.94531 6.512C4.88123 6.43714 4.80303 6.37565 4.71518 6.33101C4.62732 6.28638 4.53154 6.25949 4.4333 6.25188C4.33505 6.24426 4.23627 6.25607 4.14259 6.28664C4.04891 6.3172 3.96217 6.36591 3.88731 6.43L0.387314 9.43C0.304979 9.50041 0.238875 9.58782 0.19355 9.68622C0.148226 9.78461 0.124756 9.89166 0.124756 10C0.124756 10.1083 0.148226 10.2154 0.19355 10.3138C0.238875 10.4122 0.304979 10.4996 0.387314 10.57L3.88731 13.57C4.03849 13.6994 4.23488 13.7635 4.4333 13.7481C4.63171 13.7327 4.81589 13.6392 4.94531 13.488C5.07474 13.3368 5.13881 13.1404 5.12343 12.942C5.10805 12.7436 5.01449 12.5594 4.86331 12.43L2.90331 10.75H13.8753C14.0742 10.75 14.265 10.671 14.4056 10.5303C14.5463 10.3897 14.6253 10.1989 14.6253 10Z" fill="#6A48D9"/>
<path id="Vector_2" d="M7.87524 6C7.87524 6.702 7.87524 7.053 8.04424 7.306C8.11703 7.41478 8.21046 7.50821 8.31924 7.581C8.57224 7.75 8.92324 7.75 9.62524 7.75H13.8752C14.472 7.75 15.0443 7.98705 15.4662 8.40901C15.8882 8.83097 16.1252 9.40326 16.1252 10C16.1252 10.5967 15.8882 11.169 15.4662 11.591C15.0443 12.0129 14.472 12.25 13.8752 12.25H9.62524C8.92324 12.25 8.57224 12.25 8.31924 12.418C8.21037 12.4911 8.11693 12.5849 8.04424 12.694C7.87524 12.947 7.87524 13.298 7.87524 14C7.87524 16.828 7.87524 18.243 8.75424 19.121C9.63224 20 11.0462 20 13.8742 20H14.8742C17.7042 20 19.1172 20 19.9962 19.121C20.8752 18.243 20.8752 16.828 20.8752 14V6C20.8752 3.172 20.8752 1.757 19.9962 0.879C19.1172 -5.96046e-08 17.7032 0 14.8752 0H13.8752C11.0462 0 9.63224 -5.96046e-08 8.75424 0.879C7.87524 1.757 7.87524 3.172 7.87524 6Z" fill="#6A48D9"/>
</g>
</svg>
