<svg width="19" height="20" viewBox="0 0 19 20" fill="none" xmlns="http://www.w3.org/2000/svg">
<path id="Vector" d="M17.718 13.8085C17.6439 13.7192 17.5711 13.6299 17.4997 13.5438C16.5176 12.3558 15.9234 11.6388 15.9234 8.27589C15.9234 6.53482 15.5069 5.10625 14.6859 4.03482C14.0805 3.2433 13.2622 2.64286 12.1836 2.19911C12.1698 2.19139 12.1574 2.18126 12.147 2.1692C11.7591 0.870089 10.6975 0 9.50016 0C8.30283 0 7.24167 0.870089 6.85373 2.16786C6.84337 2.17948 6.83115 2.18928 6.81757 2.19688C4.3006 3.23304 3.07739 5.22098 3.07739 8.27455C3.07739 11.6388 2.48408 12.3558 1.50105 13.5424C1.42962 13.6286 1.35685 13.7161 1.28275 13.8071C1.09132 14.038 0.970032 14.3189 0.933243 14.6165C0.896453 14.9141 0.945701 15.2161 1.07516 15.4866C1.3506 16.067 1.93766 16.4272 2.60775 16.4272H16.3975C17.0644 16.4272 17.6475 16.0674 17.9238 15.4897C18.0538 15.2191 18.1035 14.917 18.0671 14.619C18.0306 14.321 17.9095 14.0397 17.718 13.8085ZM9.50016 20C10.1453 19.9995 10.7782 19.8244 11.3318 19.4932C11.8855 19.1621 12.3392 18.6873 12.6448 18.1192C12.6592 18.092 12.6663 18.0615 12.6654 18.0307C12.6646 17.9999 12.6558 17.9699 12.6399 17.9435C12.624 17.9171 12.6015 17.8953 12.5747 17.8802C12.5478 17.865 12.5176 17.8571 12.4868 17.8571H6.51444C6.4836 17.857 6.45327 17.8649 6.42638 17.88C6.39949 17.8951 6.37697 17.9169 6.36101 17.9433C6.34506 17.9697 6.3362 17.9998 6.33532 18.0306C6.33443 18.0614 6.34154 18.0919 6.35596 18.1192C6.66156 18.6872 7.11518 19.162 7.66873 19.4931C8.22228 19.8242 8.85513 19.9994 9.50016 20Z" fill="#7D7D7D"/>
</svg>
