<svg width="19" height="20" viewBox="0 0 19 20" fill="none" xmlns="http://www.w3.org/2000/svg">
<path id="Vector" d="M1.58347 20C1.39259 20 1.20953 19.9247 1.07456 19.7908C0.939595 19.6568 0.86377 19.4752 0.86377 19.2857V1.61295C0.863821 1.4258 0.913264 1.24192 1.00718 1.07963C1.10109 0.917346 1.2362 0.782301 1.39904 0.687946C1.94332 0.374107 3.03995 0 5.18195 0C6.8557 0 8.72781 0.656696 10.3795 1.23571C11.7096 1.70223 12.9659 2.14286 13.8183 2.14286C14.9156 2.13952 16.0012 1.91947 17.012 1.49554C17.1351 1.44397 17.2691 1.42344 17.4021 1.43576C17.5351 1.44809 17.663 1.49289 17.7743 1.56617C17.8857 1.63946 17.977 1.73895 18.0402 1.85577C18.1034 1.97259 18.1365 2.10312 18.1365 2.23571V12.0286C18.1363 12.2021 18.0852 12.3719 17.9893 12.5171C17.8934 12.6623 17.757 12.7766 17.5967 12.846C17.2049 13.0161 15.7745 13.5714 13.8183 13.5714C12.7325 13.5714 11.3722 13.2527 9.9324 12.9147C8.31398 12.5353 6.64069 12.1429 5.18195 12.1429C3.5235 12.1429 2.67471 12.392 2.30316 12.5496V19.2857C2.30316 19.4752 2.22734 19.6568 2.09237 19.7908C1.9574 19.9247 1.77434 20 1.58347 20Z" fill="#7D7D7D"/>
</svg>
