<svg width="20" height="20" viewBox="0 0 20 20" fill="none" xmlns="http://www.w3.org/2000/svg">
<path id="Vector" fill-rule="evenodd" clip-rule="evenodd" d="M2.85714 4.07656e-08C2.72132 -4.58384e-05 2.5883 0.0386348 2.47368 0.111506C2.35906 0.184377 2.26759 0.288418 2.21 0.411429L0.0671429 4.99571C0.0145927 5.10853 -0.00756778 5.23312 0.00285714 5.35714H0V6.70714C0 7.45571 0.322857 8.17286 0.9 8.70143C1.47429 9.23 2.25571 9.52714 3.07 9.52714H3.49857C4.30001 9.53224 5.07445 9.23776 5.67 8.70143C5.90429 8.48714 6.09571 8.24143 6.24143 7.97571C6.42286 7.73286 6.71714 7.73286 6.88714 7.95571C7.03429 8.23 7.23 8.48143 7.46857 8.70143C8.04429 9.23 8.82572 9.52714 9.64 9.52714H10.4071C11.2086 9.53224 11.983 9.23776 12.5786 8.70143C12.8014 8.49571 12.9871 8.26286 13.13 8.01C13.3171 7.71714 13.6443 7.72429 13.8157 7.99571C13.96 8.25429 14.1486 8.49286 14.3757 8.70143C14.9514 9.23 15.7329 9.52714 16.5471 9.52714H16.93C17.7314 9.53224 18.5059 9.23776 19.1014 8.70143C19.6771 8.17286 20 7.45571 20 6.70714V5.35714H19.9971C20.0076 5.23312 19.9854 5.10853 19.9329 4.99571L17.79 0.411429C17.7324 0.288418 17.6409 0.184377 17.5263 0.111506C17.4117 0.0386348 17.2787 -4.58384e-05 17.1429 4.07656e-08H2.85714ZM1.42857 18.5714V11.0414C3.12571 11.6014 5.15 11.3514 6.54 10.2757C8.39429 11.71 11.61 11.71 13.4629 10.2757C14.86 11.3557 16.88 11.6014 18.5714 11.0271V18.5714C18.5714 18.9503 18.4209 19.3137 18.153 19.5816C17.8851 19.8495 17.5217 20 17.1429 20H15.35V14.5857C15.3497 14.5439 15.3406 14.5026 15.3234 14.4644C15.3062 14.4263 15.2812 14.3922 15.25 14.3643C15.1834 14.3044 15.0967 14.2718 15.0071 14.2729H12.1614C12.0719 14.2718 11.9852 14.3044 11.9186 14.3643C11.8874 14.3922 11.8624 14.4263 11.8452 14.4644C11.8279 14.5026 11.8189 14.5439 11.8186 14.5857V20H2.85714C2.47826 20 2.1149 19.8495 1.84699 19.5816C1.57908 19.3137 1.42857 18.9503 1.42857 18.5714ZM3.57429 15.3714V13.5714C3.57429 13.382 3.64954 13.2003 3.7835 13.0664C3.91745 12.9324 4.09913 12.8571 4.28857 12.8571H8.59429C8.78373 12.8571 8.96541 12.9324 9.09936 13.0664C9.23332 13.2003 9.30857 13.382 9.30857 13.5714V15.3714C9.30857 15.5609 9.23332 15.7425 9.09936 15.8765C8.96541 16.0105 8.78373 16.0857 8.59429 16.0857H4.28857C4.09913 16.0857 3.91745 16.0105 3.7835 15.8765C3.64954 15.7425 3.57429 15.5609 3.57429 15.3714Z" fill="white"/>
</svg>
